# xmcd CD database file
#
# Track frame offsets:
#	150
#	19185
#	40837
#	50055
#	70600
#	93395
#	117970
#	137875
#	148730
#	165877
#
# Disc length: 2613 seconds
#
# Revision: 2
# Processed by: cddbd v1.5.1PL0 Copyright (c) Steve Scherf et al.
# Submitted via: CDex 1.51
#
DISCID=860a330a
DTITLE=Slide Five - Rhode Trip
DYEAR=1996
DGENRE=Jazz
TTITLE0=Up and Out
TTITLE1=Movin' On
TTITLE2=Jacko's Call (Part 1)
TTITLE3=GMF
TTITLE4=Outerspace
TTITLE5=By Chance
TTITLE6=Fender Bender
TTITLE7=Jacko's Call (Part 2)
TTITLE8=Rhode Trip
TTITLE9=Tribute
EXTD=YEAR: 1996
EXTT0=
EXTT1=
EXTT2=
EXTT3=
EXTT4=
EXTT5=
EXTT6=
EXTT7=
EXTT8=
EXTT9=
PLAYORDER=
